<svg xmlns="http://www.w3.org/2000/svg" viewBox="0 0 108 108" width="108" height="108" role="img" aria-label="SyncSMS">
  <defs>
    <linearGradient id="bg" x1="0%" y1="0%" x2="100%" y2="100%">
      <stop offset="0%" stop-color="#0B1220"/>
      <stop offset="45%" stop-color="#1E3A8A"/>
      <stop offset="100%" stop-color="#2563EB"/>
    </linearGradient>
    <linearGradient id="shine" x1="0%" y1="0%" x2="0%" y2="100%">
      <stop offset="0%" stop-color="#FFFFFF" stop-opacity="0.22"/>
      <stop offset="55%" stop-color="#FFFFFF" stop-opacity="0"/>
    </linearGradient>
    <filter id="s" x="-30%" y="-30%" width="160%" height="160%">
      <feDropShadow dx="0" dy="2.2" stdDeviation="2.2" flood-color="#000000" flood-opacity="0.35"/>
    </filter>
  </defs>
  <!-- Rounded square -->
  <path fill="url(#bg)" d="M24 6h60a18 18 0 0 1 18 18v60a18 18 0 0 1-18 18H24a18 18 0 0 1-18-18V24A18 18 0 0 1 24 6Z"/>
  <path fill="url(#shine)" d="M24 6h60a18 18 0 0 1 18 18v28H6V24A18 18 0 0 1 24 6Z"/>
  <!-- Chat bubble -->
  <g filter="url(#s)">
    <path fill="#FFFFFF" fill-opacity="0.96" d="M30 30h40a6 6 0 0 1 6 6v22a6 6 0 0 1-6 6H44l-7 9v-9h-7a6 6 0 0 1-6-6V36a6 6 0 0 1 6-6Z"/>
  </g>
  <!-- Sync arcs (tech) -->
  <g fill="none" stroke="#0F172A" stroke-opacity="0.88" stroke-width="3.2" stroke-linecap="round" stroke-linejoin="round">
    <path d="M40 48c3-5 9-8 15-7 5 1 9 5 10 10"/>
    <path d="M65 51l3-4"/>
    <path d="M65 51l-4 1"/>
    <path d="M68 58c-3 5-9 8-15 7-5-1-9-5-10-10"/>
    <path d="M43 55l-3 4"/>
    <path d="M43 55l4-1"/>
  </g>
  <!-- Pulse dot -->
  <circle cx="76" cy="28" r="3.2" fill="#22C55E" fill-opacity="0.95"/>
</svg>
